<?xml version="1.0" standalone="yes"?>
<svg xmlns="http://www.w3.org/2000/svg" width="200" height="200">
<path style="fill:#ffffff; stroke:none;" d="M128 2L113.424 26L105.896 35.8017L83 32.2106L25 21L46.4244 131L59 198L73.4244 182L102.615 145.225L124.973 134.301L127 113L94 120L93.2978 144L64 191L63 191C66.8742 174.101 73.0632 157.659 77.8588 141C79.6234 134.87 80.8624 124.112 85.51 119.513C91.5212 113.565 110.721 111.218 119 110L124.169 58L129 6L130 6L144.536 62L144 89L167 87L170 65L154.419 63.142L147.811 49L134 12L135 12C140.665 23.9759 150.375 33.8585 156.041 45.8302C158.076 50.1297 155.093 56.6915 158.028 60.3966C159.602 62.3839 162.774 61.9208 165 62.0887C178.401 63.0999 176.546 54.5056 178 43C171.557 41.1715 163.224 40.2344 158.039 35.7724C147.224 26.4642 141.023 8.20125 128 2z"/>
<path style="fill:#010101; stroke:none;" d="M132 8L133 9L132 8M126 10L127 11L126 10M133.333 10.6667L133.667 11.3333L133.333 10.6667M125 12L107.39 55L107 76L49 80L60 193L61 193L74.8256 125L72 83L101 81.5756L110.272 79.9722L115 64L122.881 28L125 12z"/>
<path style="fill:#ffffff; stroke:none;" d="M132 94L131 125L162 116L165 90L132 94z"/>
<path style="fill:#010101; stroke:none;" d="M62.3333 191.667L62.6667 192.333L62.3333 191.667z"/>
</svg>
